<?xml version="1.0" encoding="utf-8"?><svg xmlns="http://www.w3.org/2000/svg" xmlns:xlink="http://www.w3.org/1999/xlink"><symbol viewBox="0 0 24 24" id="2" xmlns="http://www.w3.org/2000/svg"><path d="M23.954 5.542l-8.418 8.418a5.007 5.007 0 01-7.072 0L.046 5.542C.032 5.7 0 5.843 0 6v12a5.006 5.006 0 005 5h14a5.006 5.006 0 005-5V6c0-.157-.032-.3-.046-.458z"/><path d="M14.122 12.546l9.134-9.135A4.986 4.986 0 0019 1H5A4.986 4.986 0 00.744 3.411l9.134 9.135a3.007 3.007 0 004.244 0z"/></symbol><symbol viewBox="0 0 24 24" id="bank" xmlns="http://www.w3.org/2000/svg"><path d="M24 23a1 1 0 01-1 1H1a1 1 0 010-2h22a1 1 0 011 1zM.291 8.552a2.443 2.443 0 01.153-2.566 4.716 4.716 0 011.668-1.5L9.613.582a5.174 5.174 0 014.774 0l7.5 3.907a4.716 4.716 0 011.668 1.5 2.443 2.443 0 01.153 2.566A2.713 2.713 0 0121.292 10H21v8h1a1 1 0 010 2H2a1 1 0 010-2h1v-8h-.292A2.713 2.713 0 01.291 8.552zM5 18h3v-8H5zm5-8v8h4v-8zm9 0h-3v8h3zM2.063 7.625A.717.717 0 002.708 8h18.584a.717.717 0 00.645-.375.452.452 0 00-.024-.5 2.7 2.7 0 00-.949-.864l-7.5-3.907a3.176 3.176 0 00-2.926 0l-7.5 3.907a2.712 2.712 0 00-.949.865.452.452 0 00-.026.499z"/></symbol><symbol viewBox="0 0 32 32" id="bed-health-hospital-svgrepo-com" xmlns="http://www.w3.org/2000/svg"><defs><style>.ccls-2{fill:#dd2853}.ccls-3{fill:#e291a8}</style></defs><g data-name="Layer 21" id="cLayer_21"><path d="M29 13a1 1 0 00-1 1v5H4v-9a1 1 0 00-2 0v19a1 1 0 002 0v-8h24v8a1 1 0 002 0V14a1 1 0 00-1-1z"/><path class="ccls-2" d="M26.5 15h-21a2.5 2.5 0 000 5h21a2.5 2.5 0 000-5z"/><rect class="ccls-3" height="5" rx="2" ry="2" width="9" x="3" y="11"/><circle class="ccls-3" cx="20" cy="7" r="5"/><path class="ccls-2" d="M22 6h-1V5a1 1 0 00-2 0v1h-1a1 1 0 000 2h1v1a1 1 0 002 0V8h1a1 1 0 000-2z"/></g></symbol><symbol viewBox="0 0 24 24" id="heart" xmlns="http://www.w3.org/2000/svg"><path d="M17.5.917a6.4 6.4 0 00-5.5 3.3 6.4 6.4 0 00-5.5-3.3A6.8 6.8 0 000 7.967c0 6.775 10.956 14.6 11.422 14.932l.578.409.578-.409C13.044 22.569 24 14.742 24 7.967a6.8 6.8 0 00-6.5-7.05z"/></symbol><symbol viewBox="0 0 24 24" id="home" xmlns="http://www.w3.org/2000/svg"><path d="M23.954 5.542l-8.418 8.418a5.007 5.007 0 01-7.072 0L.046 5.542C.032 5.7 0 5.843 0 6v12a5.006 5.006 0 005 5h14a5.006 5.006 0 005-5V6c0-.157-.032-.3-.046-.458z"/><path d="M14.122 12.546l9.134-9.135A4.986 4.986 0 0019 1H5A4.986 4.986 0 00.744 3.411l9.134 9.135a3.007 3.007 0 004.244 0z"/></symbol><symbol viewBox="0 0 24 24" id="phone-call" xmlns="http://www.w3.org/2000/svg"><path d="M23 11a1 1 0 01-1-1 8.008 8.008 0 00-8-8 1 1 0 010-2 10.011 10.011 0 0110 10 1 1 0 01-1 1zm-3-1a6 6 0 00-6-6 1 1 0 100 2 4 4 0 014 4 1 1 0 002 0zm2.183 12.164l.91-1.049a3.1 3.1 0 000-4.377c-.031-.031-2.437-1.882-2.437-1.882a3.1 3.1 0 00-4.281.006l-1.906 1.606a12.784 12.784 0 01-6.932-6.944l1.6-1.9a3.1 3.1 0 00.007-4.282S7.291.939 7.26.908A3.082 3.082 0 002.934.862l-1.15 1C-5.01 9.744 9.62 24.261 17.762 24a6.155 6.155 0 004.421-1.836z"/></symbol><symbol viewBox="0 0 512 512" id="settings" xmlns="http://www.w3.org/2000/svg"><path d="M34.283 384c17.646 30.626 56.779 41.148 87.405 23.502l.062-.036 9.493-5.483A191.51 191.51 0 00192 437.055V448c0 35.346 28.654 64 64 64s64-28.654 64-64v-10.944a191.494 191.494 0 0060.757-35.115l9.536 5.504c30.633 17.673 69.794 7.167 87.467-23.467 17.673-30.633 7.167-69.794-23.467-87.467l-9.472-5.461a194.15 194.15 0 000-70.187l9.472-5.461c30.633-17.673 41.14-56.833 23.467-87.467-17.673-30.633-56.833-41.14-87.467-23.467l-9.493 5.483A191.518 191.518 0 00320 74.944V64c0-35.346-28.654-64-64-64s-64 28.654-64 64v10.944a191.494 191.494 0 00-60.757 35.115l-9.536-5.525C91.073 86.86 51.913 97.367 34.24 128s-7.167 69.794 23.467 87.467l9.472 5.461a194.15 194.15 0 000 70.187l-9.472 5.461C27.158 314.296 16.686 353.38 34.283 384zM256 170.667c47.128 0 85.333 38.205 85.333 85.333S303.128 341.333 256 341.333 170.667 303.128 170.667 256s38.205-85.333 85.333-85.333z"/></symbol><symbol viewBox="0 0 24 24" id="twitter" xmlns="http://www.w3.org/2000/svg"><path d="M21.543 7.104c.014.211.014.423.014.636 0 6.507-4.954 14.01-14.01 14.01v-.004A13.936 13.936 0 010 19.539a9.881 9.881 0 007.287-2.041 4.93 4.93 0 01-4.6-3.42 4.926 4.926 0 002.223-.084A4.924 4.924 0 01.96 9.167v-.062a4.88 4.88 0 002.235.616A4.927 4.927 0 011.67 3.148a13.982 13.982 0 0010.148 5.145 4.929 4.929 0 018.391-4.491 9.873 9.873 0 003.127-1.195 4.947 4.947 0 01-2.165 2.724A9.89 9.89 0 0024 4.555a10.008 10.008 0 01-2.457 2.549z"/></symbol><symbol viewBox="0 0 24 24" id="youtube" xmlns="http://www.w3.org/2000/svg"><path d="M23.498 6.186a3.016 3.016 0 00-2.122-2.136C19.505 3.546 12 3.546 12 3.546s-7.505 0-9.377.504A3.015 3.015 0 00.502 6.186C0 8.07 0 12 0 12s0 3.93.502 5.814a3.016 3.016 0 002.122 2.136c1.871.504 9.376.504 9.376.504s7.505 0 9.377-.504a3.018 3.018 0 002.122-2.136C24 15.93 24 12 24 12s0-3.93-.502-5.814zM9.546 15.569V8.431L15.818 12l-6.272 3.569z"/></symbol></svg>